<svg xmlns="http://www.w3.org/2000/svg" viewBox="0 0 53.466 27.362" height="103.414" width="202.075"><g font-weight="400" font-size="30.389" font-family="Righteous" letter-spacing="0" word-spacing="0"><path d="M18.148 19.394a10.87 10.87 0 0 1-3.324 1.959 10.878 10.878 0 0 1-3.814.682 10.64 10.64 0 0 1-2.923-.4 11.173 11.173 0 0 1-2.626-1.098A11.425 11.425 0 0 1 3.235 18.8a11.425 11.425 0 0 1-1.736-2.225 11.647 11.647 0 0 1-1.113-2.627A11.024 11.024 0 0 1 0 11.025c0-1.009.129-1.983.386-2.923.267-.94.638-1.815 1.113-2.627a11.229 11.229 0 0 1 1.736-2.24A10.985 10.985 0 0 1 5.46 1.514 10.812 10.812 0 0 1 8.087.4c.94-.266 1.914-.4 2.923-.4 1.316 0 2.587.228 3.814.683a10.459 10.459 0 0 1 3.324 1.958l-2.256 3.71a6.29 6.29 0 0 0-2.21-1.543 6.69 6.69 0 0 0-2.672-.55c-.94 0-1.82.179-2.641.535a6.885 6.885 0 0 0-2.152 1.454 6.665 6.665 0 0 0-1.454 2.152 6.529 6.529 0 0 0-.534 2.626c0 .93.178 1.805.534 2.626a6.885 6.885 0 0 0 3.606 3.59 6.565 6.565 0 0 0 2.641.536c.93 0 1.82-.179 2.671-.535a6.46 6.46 0 0 0 2.211-1.558z" style="line-height:1.25;-inkscape-font-specification:'Righteous, Normal';font-variant-ligatures:normal;font-variant-caps:normal;font-variant-numeric:normal;font-feature-settings:normal;text-align:start" fill="#cbbb68"/><path d="M28.706 13.802a8.29 8.29 0 0 1-.614 3.2 8.09 8.09 0 0 1-1.671 2.556 7.953 7.953 0 0 1-2.485 1.7 7.553 7.553 0 0 1-3.043.614 7.62 7.62 0 0 1-3.042-.614 8.179 8.179 0 0 1-2.485-1.7 8.091 8.091 0 0 1-1.671-2.556 8.29 8.29 0 0 1-.614-3.2c0-1.161.205-2.237.614-3.228.41-.99.966-1.842 1.671-2.556a7.853 7.853 0 0 1 2.485-1.7 7.62 7.62 0 0 1 3.042-.614c1.086 0 2.1.195 3.043.586.952.38 1.78.928 2.485 1.642.704.705 1.262 1.557 1.671 2.557.41.99.614 2.094.614 3.313zm-3.928 0c0-.628-.104-1.195-.314-1.7a3.865 3.865 0 0 0-.828-1.313 3.469 3.469 0 0 0-1.243-.843c-.466-.2-.966-.3-1.5-.3-.533 0-1.037.1-1.514.3-.466.19-.876.471-1.228.843-.343.361-.614.8-.814 1.314a4.58 4.58 0 0 0-.3 1.7c0 .59.1 1.137.3 1.642.2.504.471.942.814 1.314a4.05 4.05 0 0 0 1.228.885c.477.21.981.315 1.514.315.534 0 1.034-.1 1.5-.3.476-.2.89-.481 1.243-.843.352-.362.628-.8.828-1.314.21-.514.314-1.08.314-1.7z" style="line-height:1.25;-inkscape-font-specification:'Righteous, Normal';font-variant-ligatures:normal;font-variant-caps:normal;font-variant-numeric:normal;font-feature-settings:normal;text-align:start" fill="#fff"/><path d="M46.49 21.575H26.597L33.29 9.75H22.31l-1.263-4.036h18.8L33.156 17.54H46.49z" style="line-height:1.25;-inkscape-font-specification:'Righteous, Normal';font-variant-ligatures:normal;font-variant-caps:normal;font-variant-numeric:normal;font-feature-settings:normal;text-align:start" fill="#fff"/><path d="M43.272 27.332v-4.08l2.255.03c.396 0 .777-.065 1.143-.194a3.794 3.794 0 0 0 1.009-.534c.316-.228.593-.5.83-.816.238-.307.43-.643.58-1.01-.446.189-.749.379-1.214.567a3.587 3.587 0 0 1-1.38.282c-.98 0-2.051-.175-2.912-.522a6.957 6.957 0 0 1-2.27-1.469 7.064 7.064 0 0 1-1.528-2.33c-.366-.92-.55-1.948-.55-3.086V5.713h4.037v8.457c0 .564.079 1.059.237 1.484.168.416.39.767.668 1.054a2.7 2.7 0 0 0 .964.623 3.45 3.45 0 0 0 1.202.208 2.53 2.53 0 0 0 1.172-.282c.376-.198.703-.455.98-.772s.494-.673.653-1.068c.158-.406.237-.821.237-1.247V5.713h4.08v13.562a7.992 7.992 0 0 1-.652 3.145 8.104 8.104 0 0 1-1.751 2.567 8.228 8.228 0 0 1-2.567 1.737 7.81 7.81 0 0 1-3.146.638z" style="line-height:1.25;-inkscape-font-specification:'Righteous, Normal';font-variant-ligatures:normal;font-variant-caps:normal;font-variant-numeric:normal;font-feature-settings:normal;text-align:start" fill="#fff"/></g></svg>